<mxfile host="app.diagrams.net" modified="2023-10-31T15:25:17.875Z" agent="Mozilla/5.0 (Windows NT 10.0; Win64; x64; rv:109.0) Gecko/20100101 Firefox/119.0" etag="0AURMmMysQcQkBmRu7-1" version="22.0.8" type="device">
  <diagram name="Pagina-1" id="WcEID6bv1jzaOHz7mvwv">
    <mxGraphModel dx="1171" dy="507" grid="1" gridSize="10" guides="1" tooltips="1" connect="1" arrows="1" fold="1" page="1" pageScale="1" pageWidth="827" pageHeight="1169" math="0" shadow="0">
      <root>
        <mxCell id="0" />
        <mxCell id="1" parent="0" />
        <mxCell id="5sCJ8YDMh3-dOOH-3sau-2" value="" style="ellipse;whiteSpace=wrap;html=1;aspect=fixed;" vertex="1" parent="1">
          <mxGeometry x="550" y="831" width="40" height="40" as="geometry" />
        </mxCell>
        <mxCell id="5sCJ8YDMh3-dOOH-3sau-1" value="" style="ellipse;whiteSpace=wrap;html=1;aspect=fixed;fillColor=#080808;" vertex="1" parent="1">
          <mxGeometry x="555" y="836" width="30" height="30" as="geometry" />
        </mxCell>
        <mxCell id="5sCJ8YDMh3-dOOH-3sau-3" value="" style="ellipse;whiteSpace=wrap;html=1;aspect=fixed;fillColor=#080808;" vertex="1" parent="1">
          <mxGeometry x="15" y="15" width="30" height="30" as="geometry" />
        </mxCell>
        <mxCell id="5sCJ8YDMh3-dOOH-3sau-4" value="" style="endArrow=classic;html=1;rounded=0;exitX=1;exitY=0.5;exitDx=0;exitDy=0;entryX=0;entryY=0.5;entryDx=0;entryDy=0;" edge="1" parent="1" source="5sCJ8YDMh3-dOOH-3sau-3" target="5sCJ8YDMh3-dOOH-3sau-5">
          <mxGeometry width="50" height="50" relative="1" as="geometry">
            <mxPoint x="360" y="31" as="sourcePoint" />
            <mxPoint x="100" y="31" as="targetPoint" />
          </mxGeometry>
        </mxCell>
        <mxCell id="5sCJ8YDMh3-dOOH-3sau-5" value="Login *" style="rounded=0;whiteSpace=wrap;html=1;" vertex="1" parent="1">
          <mxGeometry x="90" y="10" width="80" height="40" as="geometry" />
        </mxCell>
        <mxCell id="5sCJ8YDMh3-dOOH-3sau-6" value="Show Requests" style="rounded=0;whiteSpace=wrap;html=1;" vertex="1" parent="1">
          <mxGeometry x="384" y="10" width="80" height="40" as="geometry" />
        </mxCell>
        <mxCell id="5sCJ8YDMh3-dOOH-3sau-9" value="" style="endArrow=classic;html=1;rounded=0;entryX=0;entryY=0.5;entryDx=0;entryDy=0;exitX=1;exitY=0.5;exitDx=0;exitDy=0;" edge="1" parent="1" source="5sCJ8YDMh3-dOOH-3sau-5" target="5sCJ8YDMh3-dOOH-3sau-6">
          <mxGeometry width="50" height="50" relative="1" as="geometry">
            <mxPoint x="190" y="30" as="sourcePoint" />
            <mxPoint x="360" y="30" as="targetPoint" />
          </mxGeometry>
        </mxCell>
        <mxCell id="5sCJ8YDMh3-dOOH-3sau-11" value="[pressed==workoutRoutinesRequests]" style="edgeLabel;html=1;align=center;verticalAlign=middle;resizable=0;points=[];" vertex="1" connectable="0" parent="5sCJ8YDMh3-dOOH-3sau-9">
          <mxGeometry x="0.2357" y="1" relative="1" as="geometry">
            <mxPoint x="-27" y="-8" as="offset" />
          </mxGeometry>
        </mxCell>
        <mxCell id="5sCJ8YDMh3-dOOH-3sau-12" value="Select a request" style="rounded=0;whiteSpace=wrap;html=1;" vertex="1" parent="1">
          <mxGeometry x="530" y="10" width="80" height="40" as="geometry" />
        </mxCell>
        <mxCell id="5sCJ8YDMh3-dOOH-3sau-13" value="" style="endArrow=classic;html=1;rounded=0;exitX=1;exitY=0.5;exitDx=0;exitDy=0;entryX=0;entryY=0.5;entryDx=0;entryDy=0;" edge="1" parent="1" source="5sCJ8YDMh3-dOOH-3sau-6" target="5sCJ8YDMh3-dOOH-3sau-12">
          <mxGeometry width="50" height="50" relative="1" as="geometry">
            <mxPoint x="470" y="30" as="sourcePoint" />
            <mxPoint x="630" y="30" as="targetPoint" />
          </mxGeometry>
        </mxCell>
        <mxCell id="5sCJ8YDMh3-dOOH-3sau-14" value="&lt;div&gt;&lt;br&gt;&lt;/div&gt;&lt;div&gt;&lt;br&gt;&lt;/div&gt;" style="edgeLabel;html=1;align=center;verticalAlign=middle;resizable=0;points=[];" vertex="1" connectable="0" parent="5sCJ8YDMh3-dOOH-3sau-13">
          <mxGeometry x="0.2357" y="1" relative="1" as="geometry">
            <mxPoint x="-27" y="-8" as="offset" />
          </mxGeometry>
        </mxCell>
        <mxCell id="5sCJ8YDMh3-dOOH-3sau-17" value="" style="endArrow=classic;html=1;rounded=0;exitX=0.5;exitY=1;exitDx=0;exitDy=0;entryX=0.5;entryY=0;entryDx=0;entryDy=0;" edge="1" parent="1" source="5sCJ8YDMh3-dOOH-3sau-12" target="5sCJ8YDMh3-dOOH-3sau-20">
          <mxGeometry width="50" height="50" relative="1" as="geometry">
            <mxPoint x="460" y="40" as="sourcePoint" />
            <mxPoint x="540" y="91" as="targetPoint" />
          </mxGeometry>
        </mxCell>
        <mxCell id="5sCJ8YDMh3-dOOH-3sau-18" value="&lt;div&gt;&lt;br&gt;&lt;/div&gt;&lt;div&gt;&lt;br&gt;&lt;/div&gt;" style="edgeLabel;html=1;align=center;verticalAlign=middle;resizable=0;points=[];" vertex="1" connectable="0" parent="5sCJ8YDMh3-dOOH-3sau-17">
          <mxGeometry x="0.2357" y="1" relative="1" as="geometry">
            <mxPoint x="-27" y="-8" as="offset" />
          </mxGeometry>
        </mxCell>
        <mxCell id="5sCJ8YDMh3-dOOH-3sau-21" style="edgeStyle=orthogonalEdgeStyle;rounded=0;orthogonalLoop=1;jettySize=auto;html=1;" edge="1" parent="1" source="5sCJ8YDMh3-dOOH-3sau-20">
          <mxGeometry relative="1" as="geometry">
            <mxPoint x="730" y="171" as="targetPoint" />
          </mxGeometry>
        </mxCell>
        <mxCell id="5sCJ8YDMh3-dOOH-3sau-22" style="edgeStyle=orthogonalEdgeStyle;rounded=0;orthogonalLoop=1;jettySize=auto;html=1;entryX=1;entryY=0.5;entryDx=0;entryDy=0;" edge="1" parent="1" source="5sCJ8YDMh3-dOOH-3sau-20" target="5sCJ8YDMh3-dOOH-3sau-33">
          <mxGeometry relative="1" as="geometry">
            <mxPoint x="490" y="171" as="targetPoint" />
          </mxGeometry>
        </mxCell>
        <mxCell id="5sCJ8YDMh3-dOOH-3sau-24" style="edgeStyle=orthogonalEdgeStyle;rounded=0;orthogonalLoop=1;jettySize=auto;html=1;" edge="1" parent="1" source="5sCJ8YDMh3-dOOH-3sau-59">
          <mxGeometry relative="1" as="geometry">
            <mxPoint x="570" y="331" as="targetPoint" />
          </mxGeometry>
        </mxCell>
        <mxCell id="5sCJ8YDMh3-dOOH-3sau-58" value="[pressed==satisfyButton]" style="edgeLabel;html=1;align=center;verticalAlign=middle;resizable=0;points=[];" vertex="1" connectable="0" parent="5sCJ8YDMh3-dOOH-3sau-24">
          <mxGeometry x="0.3297" relative="1" as="geometry">
            <mxPoint x="-65" y="-96" as="offset" />
          </mxGeometry>
        </mxCell>
        <mxCell id="5sCJ8YDMh3-dOOH-3sau-20" value="" style="rhombus;whiteSpace=wrap;html=1;" vertex="1" parent="1">
          <mxGeometry x="560" y="166" width="20" height="10" as="geometry" />
        </mxCell>
        <mxCell id="5sCJ8YDMh3-dOOH-3sau-27" value="Send Notification" style="rounded=0;whiteSpace=wrap;html=1;" vertex="1" parent="1">
          <mxGeometry x="84.99999999999999" y="111" width="80" height="40" as="geometry" />
        </mxCell>
        <mxCell id="5sCJ8YDMh3-dOOH-3sau-28" value="" style="endArrow=none;html=1;rounded=0;" edge="1" parent="1">
          <mxGeometry width="50" height="50" relative="1" as="geometry">
            <mxPoint x="205" y="231" as="sourcePoint" />
            <mxPoint x="205" y="111" as="targetPoint" />
          </mxGeometry>
        </mxCell>
        <mxCell id="5sCJ8YDMh3-dOOH-3sau-29" style="edgeStyle=orthogonalEdgeStyle;rounded=0;orthogonalLoop=1;jettySize=auto;html=1;entryX=1.002;entryY=0.489;entryDx=0;entryDy=0;entryPerimeter=0;" edge="1" parent="1" target="5sCJ8YDMh3-dOOH-3sau-27">
          <mxGeometry relative="1" as="geometry">
            <mxPoint x="175" y="131" as="targetPoint" />
            <mxPoint x="205" y="131" as="sourcePoint" />
          </mxGeometry>
        </mxCell>
        <mxCell id="5sCJ8YDMh3-dOOH-3sau-32" style="edgeStyle=orthogonalEdgeStyle;rounded=0;orthogonalLoop=1;jettySize=auto;html=1;entryX=1.002;entryY=0.489;entryDx=0;entryDy=0;entryPerimeter=0;" edge="1" parent="1">
          <mxGeometry relative="1" as="geometry">
            <mxPoint x="44.999999999999986" y="130.87" as="targetPoint" />
            <mxPoint x="84.99999999999999" y="130.87" as="sourcePoint" />
            <Array as="points">
              <mxPoint x="74.99999999999999" y="130.87" />
              <mxPoint x="74.99999999999999" y="130.87" />
            </Array>
          </mxGeometry>
        </mxCell>
        <mxCell id="5sCJ8YDMh3-dOOH-3sau-34" style="edgeStyle=orthogonalEdgeStyle;rounded=0;orthogonalLoop=1;jettySize=auto;html=1;exitX=0;exitY=0.5;exitDx=0;exitDy=0;" edge="1" parent="1" source="5sCJ8YDMh3-dOOH-3sau-33">
          <mxGeometry relative="1" as="geometry">
            <mxPoint x="205" y="171" as="targetPoint" />
            <mxPoint x="284.99999999999994" y="171.0047393364929" as="sourcePoint" />
          </mxGeometry>
        </mxCell>
        <mxCell id="5sCJ8YDMh3-dOOH-3sau-33" value="&lt;div&gt;Display Email Form&lt;/div&gt;" style="rounded=0;whiteSpace=wrap;html=1;" vertex="1" parent="1">
          <mxGeometry x="330" y="151" width="80" height="40" as="geometry" />
        </mxCell>
        <mxCell id="5sCJ8YDMh3-dOOH-3sau-35" value="[pressed==askClarification]" style="edgeLabel;html=1;align=center;verticalAlign=middle;resizable=0;points=[];" vertex="1" connectable="0" parent="1">
          <mxGeometry x="490.998947368421" y="163" as="geometry" />
        </mxCell>
        <mxCell id="5sCJ8YDMh3-dOOH-3sau-36" value="Send Email" style="rounded=0;whiteSpace=wrap;html=1;" vertex="1" parent="1">
          <mxGeometry x="84.99999999999999" y="191" width="80" height="40" as="geometry" />
        </mxCell>
        <mxCell id="5sCJ8YDMh3-dOOH-3sau-37" style="edgeStyle=orthogonalEdgeStyle;rounded=0;orthogonalLoop=1;jettySize=auto;html=1;entryX=1.002;entryY=0.489;entryDx=0;entryDy=0;entryPerimeter=0;" edge="1" parent="1" target="5sCJ8YDMh3-dOOH-3sau-36">
          <mxGeometry relative="1" as="geometry">
            <mxPoint x="175" y="211" as="targetPoint" />
            <mxPoint x="205" y="211" as="sourcePoint" />
          </mxGeometry>
        </mxCell>
        <mxCell id="5sCJ8YDMh3-dOOH-3sau-38" style="edgeStyle=orthogonalEdgeStyle;rounded=0;orthogonalLoop=1;jettySize=auto;html=1;entryX=1.002;entryY=0.489;entryDx=0;entryDy=0;entryPerimeter=0;" edge="1" parent="1">
          <mxGeometry relative="1" as="geometry">
            <mxPoint x="44.999999999999986" y="210.87" as="targetPoint" />
            <mxPoint x="84.99999999999999" y="210.87" as="sourcePoint" />
            <Array as="points">
              <mxPoint x="74.99999999999999" y="210.87" />
              <mxPoint x="74.99999999999999" y="210.87" />
            </Array>
          </mxGeometry>
        </mxCell>
        <mxCell id="5sCJ8YDMh3-dOOH-3sau-39" value="" style="endArrow=none;html=1;rounded=0;" edge="1" parent="1">
          <mxGeometry width="50" height="50" relative="1" as="geometry">
            <mxPoint x="45.61" y="231" as="sourcePoint" />
            <mxPoint x="45.61" y="111" as="targetPoint" />
          </mxGeometry>
        </mxCell>
        <mxCell id="5sCJ8YDMh3-dOOH-3sau-40" value="[pressed==sendEmail]" style="edgeLabel;html=1;align=center;verticalAlign=middle;resizable=0;points=[];" vertex="1" connectable="0" parent="1">
          <mxGeometry x="271.998947368421" y="163" as="geometry" />
        </mxCell>
        <mxCell id="5sCJ8YDMh3-dOOH-3sau-41" style="edgeStyle=orthogonalEdgeStyle;rounded=0;orthogonalLoop=1;jettySize=auto;html=1;entryX=0;entryY=0.5;entryDx=0;entryDy=0;" edge="1" parent="1" target="5sCJ8YDMh3-dOOH-3sau-95">
          <mxGeometry relative="1" as="geometry">
            <mxPoint x="70" y="771" as="targetPoint" />
            <mxPoint x="44.999999999999986" y="170.78" as="sourcePoint" />
            <Array as="points">
              <mxPoint x="10" y="171" />
              <mxPoint x="10" y="781" />
            </Array>
          </mxGeometry>
        </mxCell>
        <mxCell id="5sCJ8YDMh3-dOOH-3sau-42" value="Send Notification" style="rounded=0;whiteSpace=wrap;html=1;" vertex="1" parent="1">
          <mxGeometry x="770" y="111" width="80" height="40" as="geometry" />
        </mxCell>
        <mxCell id="5sCJ8YDMh3-dOOH-3sau-43" value="" style="endArrow=none;html=1;rounded=0;" edge="1" parent="1">
          <mxGeometry width="50" height="50" relative="1" as="geometry">
            <mxPoint x="890" y="231" as="sourcePoint" />
            <mxPoint x="890" y="111" as="targetPoint" />
          </mxGeometry>
        </mxCell>
        <mxCell id="5sCJ8YDMh3-dOOH-3sau-47" value="Reject Request" style="rounded=0;whiteSpace=wrap;html=1;" vertex="1" parent="1">
          <mxGeometry x="770" y="191" width="80" height="40" as="geometry" />
        </mxCell>
        <mxCell id="5sCJ8YDMh3-dOOH-3sau-49" style="edgeStyle=orthogonalEdgeStyle;rounded=0;orthogonalLoop=1;jettySize=auto;html=1;entryX=0;entryY=0.5;entryDx=0;entryDy=0;" edge="1" parent="1" target="5sCJ8YDMh3-dOOH-3sau-47">
          <mxGeometry relative="1" as="geometry">
            <mxPoint x="771" y="210.99999999999994" as="targetPoint" />
            <mxPoint x="731" y="211" as="sourcePoint" />
            <Array as="points" />
          </mxGeometry>
        </mxCell>
        <mxCell id="5sCJ8YDMh3-dOOH-3sau-50" value="" style="endArrow=none;html=1;rounded=0;" edge="1" parent="1">
          <mxGeometry width="50" height="50" relative="1" as="geometry">
            <mxPoint x="730.61" y="231" as="sourcePoint" />
            <mxPoint x="730.61" y="111" as="targetPoint" />
          </mxGeometry>
        </mxCell>
        <mxCell id="5sCJ8YDMh3-dOOH-3sau-51" value="[pressed==rejectEmail]" style="edgeLabel;html=1;align=center;verticalAlign=middle;resizable=0;points=[];" vertex="1" connectable="0" parent="1">
          <mxGeometry x="649.998947368421" y="161" as="geometry" />
        </mxCell>
        <mxCell id="5sCJ8YDMh3-dOOH-3sau-52" style="edgeStyle=orthogonalEdgeStyle;rounded=0;orthogonalLoop=1;jettySize=auto;html=1;entryX=0;entryY=0.5;entryDx=0;entryDy=0;" edge="1" parent="1">
          <mxGeometry relative="1" as="geometry">
            <mxPoint x="770" y="130.92000000000002" as="targetPoint" />
            <mxPoint x="731" y="130.92000000000002" as="sourcePoint" />
            <Array as="points" />
          </mxGeometry>
        </mxCell>
        <mxCell id="5sCJ8YDMh3-dOOH-3sau-53" style="edgeStyle=orthogonalEdgeStyle;rounded=0;orthogonalLoop=1;jettySize=auto;html=1;entryX=0;entryY=0.5;entryDx=0;entryDy=0;exitX=1;exitY=0.5;exitDx=0;exitDy=0;" edge="1" parent="1" source="5sCJ8YDMh3-dOOH-3sau-42">
          <mxGeometry relative="1" as="geometry">
            <mxPoint x="890" y="130.92000000000002" as="targetPoint" />
            <mxPoint x="851" y="130.92000000000002" as="sourcePoint" />
            <Array as="points" />
          </mxGeometry>
        </mxCell>
        <mxCell id="5sCJ8YDMh3-dOOH-3sau-55" style="edgeStyle=orthogonalEdgeStyle;rounded=0;orthogonalLoop=1;jettySize=auto;html=1;entryX=0;entryY=0.5;entryDx=0;entryDy=0;exitX=1;exitY=0.5;exitDx=0;exitDy=0;" edge="1" parent="1" source="5sCJ8YDMh3-dOOH-3sau-47">
          <mxGeometry relative="1" as="geometry">
            <mxPoint x="890" y="210.92000000000002" as="targetPoint" />
            <mxPoint x="851" y="210.92000000000002" as="sourcePoint" />
            <Array as="points" />
          </mxGeometry>
        </mxCell>
        <mxCell id="5sCJ8YDMh3-dOOH-3sau-56" style="edgeStyle=orthogonalEdgeStyle;rounded=0;orthogonalLoop=1;jettySize=auto;html=1;entryX=1;entryY=0.5;entryDx=0;entryDy=0;" edge="1" parent="1" target="5sCJ8YDMh3-dOOH-3sau-95">
          <mxGeometry relative="1" as="geometry">
            <mxPoint x="600" y="781" as="targetPoint" />
            <mxPoint x="890" y="170.84" as="sourcePoint" />
            <Array as="points">
              <mxPoint x="970" y="171" />
              <mxPoint x="970" y="781" />
            </Array>
          </mxGeometry>
        </mxCell>
        <mxCell id="5sCJ8YDMh3-dOOH-3sau-60" value="" style="edgeStyle=orthogonalEdgeStyle;rounded=0;orthogonalLoop=1;jettySize=auto;html=1;" edge="1" parent="1" source="5sCJ8YDMh3-dOOH-3sau-20" target="5sCJ8YDMh3-dOOH-3sau-59">
          <mxGeometry relative="1" as="geometry">
            <mxPoint x="570" y="331" as="targetPoint" />
            <mxPoint x="570" y="176" as="sourcePoint" />
          </mxGeometry>
        </mxCell>
        <mxCell id="5sCJ8YDMh3-dOOH-3sau-59" value="" style="rhombus;whiteSpace=wrap;html=1;" vertex="1" parent="1">
          <mxGeometry x="560" y="251" width="20" height="10" as="geometry" />
        </mxCell>
        <mxCell id="5sCJ8YDMh3-dOOH-3sau-64" value="&lt;div&gt;Display Workout Form&lt;/div&gt;" style="rounded=0;whiteSpace=wrap;html=1;" vertex="1" parent="1">
          <mxGeometry x="530" y="331" width="80" height="40" as="geometry" />
        </mxCell>
        <mxCell id="5sCJ8YDMh3-dOOH-3sau-71" style="edgeStyle=orthogonalEdgeStyle;rounded=0;orthogonalLoop=1;jettySize=auto;html=1;exitX=0.75;exitY=0;exitDx=0;exitDy=0;entryX=0.25;entryY=1;entryDx=0;entryDy=0;" edge="1" parent="1" source="5sCJ8YDMh3-dOOH-3sau-65" target="5sCJ8YDMh3-dOOH-3sau-64">
          <mxGeometry relative="1" as="geometry">
            <mxPoint x="329.37" y="420" as="sourcePoint" />
            <mxPoint x="490.65" y="361" as="targetPoint" />
            <Array as="points">
              <mxPoint x="190" y="441" />
              <mxPoint x="550" y="441" />
            </Array>
          </mxGeometry>
        </mxCell>
        <mxCell id="5sCJ8YDMh3-dOOH-3sau-73" style="edgeStyle=orthogonalEdgeStyle;rounded=0;orthogonalLoop=1;jettySize=auto;html=1;exitX=0.25;exitY=0;exitDx=0;exitDy=0;" edge="1" parent="1" source="5sCJ8YDMh3-dOOH-3sau-65">
          <mxGeometry relative="1" as="geometry">
            <mxPoint x="149.63" y="371" as="targetPoint" />
            <mxPoint x="149.63" y="431" as="sourcePoint" />
          </mxGeometry>
        </mxCell>
        <mxCell id="5sCJ8YDMh3-dOOH-3sau-65" value="&lt;div&gt;Display Exercise Overview&lt;br&gt;&lt;/div&gt;" style="rounded=0;whiteSpace=wrap;html=1;" vertex="1" parent="1">
          <mxGeometry x="130" y="471" width="80" height="40" as="geometry" />
        </mxCell>
        <mxCell id="5sCJ8YDMh3-dOOH-3sau-66" value="" style="edgeStyle=orthogonalEdgeStyle;rounded=0;orthogonalLoop=1;jettySize=auto;html=1;" edge="1" parent="1" target="5sCJ8YDMh3-dOOH-3sau-67">
          <mxGeometry relative="1" as="geometry">
            <mxPoint x="570" y="526" as="targetPoint" />
            <mxPoint x="570" y="371" as="sourcePoint" />
          </mxGeometry>
        </mxCell>
        <mxCell id="5sCJ8YDMh3-dOOH-3sau-68" style="edgeStyle=orthogonalEdgeStyle;rounded=0;orthogonalLoop=1;jettySize=auto;html=1;entryX=1;entryY=0.5;entryDx=0;entryDy=0;" edge="1" parent="1" source="5sCJ8YDMh3-dOOH-3sau-67" target="5sCJ8YDMh3-dOOH-3sau-65">
          <mxGeometry relative="1" as="geometry" />
        </mxCell>
        <mxCell id="5sCJ8YDMh3-dOOH-3sau-70" value="[pressed==exerciseButton]" style="edgeLabel;html=1;align=center;verticalAlign=middle;resizable=0;points=[];" vertex="1" connectable="0" parent="5sCJ8YDMh3-dOOH-3sau-68">
          <mxGeometry x="-0.196" y="1" relative="1" as="geometry">
            <mxPoint x="-35" y="-11" as="offset" />
          </mxGeometry>
        </mxCell>
        <mxCell id="5sCJ8YDMh3-dOOH-3sau-78" style="edgeStyle=orthogonalEdgeStyle;rounded=0;orthogonalLoop=1;jettySize=auto;html=1;" edge="1" parent="1" source="5sCJ8YDMh3-dOOH-3sau-67">
          <mxGeometry relative="1" as="geometry">
            <mxPoint x="570" y="571" as="targetPoint" />
          </mxGeometry>
        </mxCell>
        <mxCell id="5sCJ8YDMh3-dOOH-3sau-67" value="" style="rhombus;whiteSpace=wrap;html=1;" vertex="1" parent="1">
          <mxGeometry x="560" y="486" width="20" height="10" as="geometry" />
        </mxCell>
        <mxCell id="5sCJ8YDMh3-dOOH-3sau-72" value="[pressed==cancelButton]" style="edgeLabel;html=1;align=center;verticalAlign=middle;resizable=0;points=[];" vertex="1" connectable="0" parent="1">
          <mxGeometry x="383.99636363636364" y="431" as="geometry" />
        </mxCell>
        <mxCell id="5sCJ8YDMh3-dOOH-3sau-76" style="edgeStyle=orthogonalEdgeStyle;rounded=0;orthogonalLoop=1;jettySize=auto;html=1;entryX=0;entryY=0.5;entryDx=0;entryDy=0;" edge="1" parent="1" source="5sCJ8YDMh3-dOOH-3sau-74" target="5sCJ8YDMh3-dOOH-3sau-64">
          <mxGeometry relative="1" as="geometry" />
        </mxCell>
        <mxCell id="5sCJ8YDMh3-dOOH-3sau-74" value="Add Exercise to Workout Routine" style="rounded=0;whiteSpace=wrap;html=1;" vertex="1" parent="1">
          <mxGeometry x="130" y="331" width="80" height="40" as="geometry" />
        </mxCell>
        <mxCell id="5sCJ8YDMh3-dOOH-3sau-77" value="[pressed==addExerciseButton]" style="edgeLabel;html=1;align=center;verticalAlign=middle;resizable=0;points=[];" vertex="1" connectable="0" parent="1">
          <mxGeometry x="229.99636363636364" y="401" as="geometry" />
        </mxCell>
        <mxCell id="5sCJ8YDMh3-dOOH-3sau-79" value="[pressed==createWorkoutRoutineButton]" style="edgeLabel;html=1;align=center;verticalAlign=middle;resizable=0;points=[];" vertex="1" connectable="0" parent="1">
          <mxGeometry x="680.0003448275863" y="531" as="geometry" />
        </mxCell>
        <mxCell id="5sCJ8YDMh3-dOOH-3sau-80" value="" style="endArrow=none;html=1;rounded=0;" edge="1" parent="1">
          <mxGeometry width="50" height="50" relative="1" as="geometry">
            <mxPoint x="470" y="571" as="sourcePoint" />
            <mxPoint x="670" y="571" as="targetPoint" />
          </mxGeometry>
        </mxCell>
        <mxCell id="5sCJ8YDMh3-dOOH-3sau-94" style="edgeStyle=orthogonalEdgeStyle;rounded=0;orthogonalLoop=1;jettySize=auto;html=1;" edge="1" parent="1" source="5sCJ8YDMh3-dOOH-3sau-81">
          <mxGeometry relative="1" as="geometry">
            <mxPoint x="620" y="741" as="targetPoint" />
          </mxGeometry>
        </mxCell>
        <mxCell id="5sCJ8YDMh3-dOOH-3sau-81" value="Send Notification" style="rounded=0;whiteSpace=wrap;html=1;" vertex="1" parent="1">
          <mxGeometry x="580" y="637" width="80" height="40" as="geometry" />
        </mxCell>
        <mxCell id="5sCJ8YDMh3-dOOH-3sau-82" value="Create Workout Routine" style="rounded=0;whiteSpace=wrap;html=1;" vertex="1" parent="1">
          <mxGeometry x="480" y="602" width="80" height="40" as="geometry" />
        </mxCell>
        <mxCell id="5sCJ8YDMh3-dOOH-3sau-83" value="" style="endArrow=classic;html=1;rounded=0;entryX=0.5;entryY=0;entryDx=0;entryDy=0;" edge="1" parent="1" target="5sCJ8YDMh3-dOOH-3sau-82">
          <mxGeometry width="50" height="50" relative="1" as="geometry">
            <mxPoint x="520" y="571" as="sourcePoint" />
            <mxPoint x="440" y="689" as="targetPoint" />
          </mxGeometry>
        </mxCell>
        <mxCell id="5sCJ8YDMh3-dOOH-3sau-84" value="&lt;div&gt;&lt;br&gt;&lt;/div&gt;&lt;div&gt;&lt;br&gt;&lt;/div&gt;" style="edgeLabel;html=1;align=center;verticalAlign=middle;resizable=0;points=[];" vertex="1" connectable="0" parent="5sCJ8YDMh3-dOOH-3sau-83">
          <mxGeometry x="0.2357" y="1" relative="1" as="geometry">
            <mxPoint x="-27" y="-8" as="offset" />
          </mxGeometry>
        </mxCell>
        <mxCell id="5sCJ8YDMh3-dOOH-3sau-85" value="" style="endArrow=classic;html=1;rounded=0;entryX=0.5;entryY=0;entryDx=0;entryDy=0;" edge="1" parent="1">
          <mxGeometry width="50" height="50" relative="1" as="geometry">
            <mxPoint x="519.81" y="642" as="sourcePoint" />
            <mxPoint x="519.81" y="673" as="targetPoint" />
          </mxGeometry>
        </mxCell>
        <mxCell id="5sCJ8YDMh3-dOOH-3sau-86" value="&lt;div&gt;&lt;br&gt;&lt;/div&gt;&lt;div&gt;&lt;br&gt;&lt;/div&gt;" style="edgeLabel;html=1;align=center;verticalAlign=middle;resizable=0;points=[];" vertex="1" connectable="0" parent="5sCJ8YDMh3-dOOH-3sau-85">
          <mxGeometry x="0.2357" y="1" relative="1" as="geometry">
            <mxPoint x="-27" y="-8" as="offset" />
          </mxGeometry>
        </mxCell>
        <mxCell id="5sCJ8YDMh3-dOOH-3sau-87" value="Insert Workout Routine in DB" style="rounded=0;whiteSpace=wrap;html=1;" vertex="1" parent="1">
          <mxGeometry x="480" y="673" width="80" height="40" as="geometry" />
        </mxCell>
        <mxCell id="5sCJ8YDMh3-dOOH-3sau-89" value="" style="endArrow=classic;html=1;rounded=0;entryX=0.5;entryY=0;entryDx=0;entryDy=0;" edge="1" parent="1" target="5sCJ8YDMh3-dOOH-3sau-81">
          <mxGeometry width="50" height="50" relative="1" as="geometry">
            <mxPoint x="619.81" y="571" as="sourcePoint" />
            <mxPoint x="660" y="611" as="targetPoint" />
          </mxGeometry>
        </mxCell>
        <mxCell id="5sCJ8YDMh3-dOOH-3sau-90" value="&lt;div&gt;&lt;br&gt;&lt;/div&gt;&lt;div&gt;&lt;br&gt;&lt;/div&gt;" style="edgeLabel;html=1;align=center;verticalAlign=middle;resizable=0;points=[];" vertex="1" connectable="0" parent="5sCJ8YDMh3-dOOH-3sau-89">
          <mxGeometry x="0.2357" y="1" relative="1" as="geometry">
            <mxPoint x="-27" y="-8" as="offset" />
          </mxGeometry>
        </mxCell>
        <mxCell id="5sCJ8YDMh3-dOOH-3sau-91" value="" style="endArrow=classic;html=1;rounded=0;" edge="1" parent="1">
          <mxGeometry width="50" height="50" relative="1" as="geometry">
            <mxPoint x="519.81" y="713" as="sourcePoint" />
            <mxPoint x="520" y="741" as="targetPoint" />
          </mxGeometry>
        </mxCell>
        <mxCell id="5sCJ8YDMh3-dOOH-3sau-92" value="&lt;div&gt;&lt;br&gt;&lt;/div&gt;&lt;div&gt;&lt;br&gt;&lt;/div&gt;" style="edgeLabel;html=1;align=center;verticalAlign=middle;resizable=0;points=[];" vertex="1" connectable="0" parent="5sCJ8YDMh3-dOOH-3sau-91">
          <mxGeometry x="0.2357" y="1" relative="1" as="geometry">
            <mxPoint x="-27" y="-8" as="offset" />
          </mxGeometry>
        </mxCell>
        <mxCell id="5sCJ8YDMh3-dOOH-3sau-93" value="" style="endArrow=none;html=1;rounded=0;" edge="1" parent="1">
          <mxGeometry width="50" height="50" relative="1" as="geometry">
            <mxPoint x="470" y="741" as="sourcePoint" />
            <mxPoint x="670" y="741" as="targetPoint" />
          </mxGeometry>
        </mxCell>
        <mxCell id="5sCJ8YDMh3-dOOH-3sau-98" style="edgeStyle=orthogonalEdgeStyle;rounded=0;orthogonalLoop=1;jettySize=auto;html=1;entryX=0.5;entryY=0;entryDx=0;entryDy=0;" edge="1" parent="1" source="5sCJ8YDMh3-dOOH-3sau-95" target="5sCJ8YDMh3-dOOH-3sau-2">
          <mxGeometry relative="1" as="geometry" />
        </mxCell>
        <mxCell id="5sCJ8YDMh3-dOOH-3sau-95" value="" style="rhombus;whiteSpace=wrap;html=1;" vertex="1" parent="1">
          <mxGeometry x="560" y="776" width="20" height="10" as="geometry" />
        </mxCell>
        <mxCell id="5sCJ8YDMh3-dOOH-3sau-96" value="" style="endArrow=classic;html=1;rounded=0;entryX=0.5;entryY=0;entryDx=0;entryDy=0;" edge="1" parent="1" target="5sCJ8YDMh3-dOOH-3sau-95">
          <mxGeometry width="50" height="50" relative="1" as="geometry">
            <mxPoint x="569.91" y="741" as="sourcePoint" />
            <mxPoint x="570.1" y="769" as="targetPoint" />
          </mxGeometry>
        </mxCell>
        <mxCell id="5sCJ8YDMh3-dOOH-3sau-97" value="&lt;div&gt;&lt;br&gt;&lt;/div&gt;&lt;div&gt;&lt;br&gt;&lt;/div&gt;" style="edgeLabel;html=1;align=center;verticalAlign=middle;resizable=0;points=[];" vertex="1" connectable="0" parent="5sCJ8YDMh3-dOOH-3sau-96">
          <mxGeometry x="0.2357" y="1" relative="1" as="geometry">
            <mxPoint x="-27" y="-8" as="offset" />
          </mxGeometry>
        </mxCell>
        <mxCell id="5sCJ8YDMh3-dOOH-3sau-99" value="" style="rounded=0;whiteSpace=wrap;html=1;" vertex="1" parent="1">
          <mxGeometry x="1080" y="40" width="360" height="760" as="geometry" />
        </mxCell>
        <mxCell id="5sCJ8YDMh3-dOOH-3sau-100" value="" style="ellipse;whiteSpace=wrap;html=1;aspect=fixed;fillColor=#080808;" vertex="1" parent="1">
          <mxGeometry x="1245" y="81" width="30" height="30" as="geometry" />
        </mxCell>
        <mxCell id="5sCJ8YDMh3-dOOH-3sau-101" value="&lt;div&gt;&lt;font style=&quot;font-size: 18px;&quot;&gt;Login*&lt;/font&gt;&lt;/div&gt;" style="text;html=1;strokeColor=none;fillColor=none;align=center;verticalAlign=middle;whiteSpace=wrap;rounded=0;" vertex="1" parent="1">
          <mxGeometry x="1080" y="40" width="60" height="30" as="geometry" />
        </mxCell>
        <mxCell id="5sCJ8YDMh3-dOOH-3sau-102" style="edgeStyle=orthogonalEdgeStyle;rounded=0;orthogonalLoop=1;jettySize=auto;html=1;exitX=0.5;exitY=1;exitDx=0;exitDy=0;entryX=0.5;entryY=0;entryDx=0;entryDy=0;" edge="1" parent="1" source="5sCJ8YDMh3-dOOH-3sau-100" target="5sCJ8YDMh3-dOOH-3sau-103">
          <mxGeometry relative="1" as="geometry">
            <mxPoint x="1415.06" y="140" as="targetPoint" />
            <mxPoint x="1264.9993939393935" y="140.030303030303" as="sourcePoint" />
          </mxGeometry>
        </mxCell>
        <mxCell id="5sCJ8YDMh3-dOOH-3sau-127" style="edgeStyle=orthogonalEdgeStyle;rounded=0;orthogonalLoop=1;jettySize=auto;html=1;exitX=0.5;exitY=1;exitDx=0;exitDy=0;" edge="1" parent="1" source="5sCJ8YDMh3-dOOH-3sau-103">
          <mxGeometry relative="1" as="geometry">
            <mxPoint x="1260" y="230" as="targetPoint" />
          </mxGeometry>
        </mxCell>
        <mxCell id="5sCJ8YDMh3-dOOH-3sau-103" value="" style="rhombus;whiteSpace=wrap;html=1;" vertex="1" parent="1">
          <mxGeometry x="1250" y="161" width="20" height="10" as="geometry" />
        </mxCell>
        <mxCell id="5sCJ8YDMh3-dOOH-3sau-113" value="" style="endArrow=none;html=1;rounded=0;" edge="1" parent="1">
          <mxGeometry width="50" height="50" relative="1" as="geometry">
            <mxPoint x="1160" y="230.5" as="sourcePoint" />
            <mxPoint x="1360" y="230.5" as="targetPoint" />
          </mxGeometry>
        </mxCell>
        <mxCell id="5sCJ8YDMh3-dOOH-3sau-115" value="Insert Username" style="rounded=0;whiteSpace=wrap;html=1;" vertex="1" parent="1">
          <mxGeometry x="1270" y="296.5" width="80" height="40" as="geometry" />
        </mxCell>
        <mxCell id="5sCJ8YDMh3-dOOH-3sau-122" value="" style="endArrow=classic;html=1;rounded=0;entryX=0.5;entryY=0;entryDx=0;entryDy=0;" edge="1" parent="1" target="5sCJ8YDMh3-dOOH-3sau-115">
          <mxGeometry width="50" height="50" relative="1" as="geometry">
            <mxPoint x="1260" y="231" as="sourcePoint" />
            <mxPoint x="1350" y="270.5" as="targetPoint" />
          </mxGeometry>
        </mxCell>
        <mxCell id="5sCJ8YDMh3-dOOH-3sau-123" value="&lt;div&gt;&lt;br&gt;&lt;/div&gt;&lt;div&gt;&lt;br&gt;&lt;/div&gt;" style="edgeLabel;html=1;align=center;verticalAlign=middle;resizable=0;points=[];" vertex="1" connectable="0" parent="5sCJ8YDMh3-dOOH-3sau-122">
          <mxGeometry x="0.2357" y="1" relative="1" as="geometry">
            <mxPoint x="-27" y="-8" as="offset" />
          </mxGeometry>
        </mxCell>
        <mxCell id="5sCJ8YDMh3-dOOH-3sau-126" value="" style="endArrow=none;html=1;rounded=0;" edge="1" parent="1">
          <mxGeometry width="50" height="50" relative="1" as="geometry">
            <mxPoint x="1160" y="400.5" as="sourcePoint" />
            <mxPoint x="1360" y="400.5" as="targetPoint" />
          </mxGeometry>
        </mxCell>
        <mxCell id="5sCJ8YDMh3-dOOH-3sau-130" value="" style="endArrow=classic;html=1;rounded=0;exitX=0.5;exitY=1;exitDx=0;exitDy=0;" edge="1" parent="1" source="5sCJ8YDMh3-dOOH-3sau-115">
          <mxGeometry width="50" height="50" relative="1" as="geometry">
            <mxPoint x="1270" y="241" as="sourcePoint" />
            <mxPoint x="1260" y="400" as="targetPoint" />
          </mxGeometry>
        </mxCell>
        <mxCell id="5sCJ8YDMh3-dOOH-3sau-131" value="&lt;div&gt;&lt;br&gt;&lt;/div&gt;&lt;div&gt;&lt;br&gt;&lt;/div&gt;" style="edgeLabel;html=1;align=center;verticalAlign=middle;resizable=0;points=[];" vertex="1" connectable="0" parent="5sCJ8YDMh3-dOOH-3sau-130">
          <mxGeometry x="0.2357" y="1" relative="1" as="geometry">
            <mxPoint x="-27" y="-8" as="offset" />
          </mxGeometry>
        </mxCell>
        <mxCell id="5sCJ8YDMh3-dOOH-3sau-134" value="Send Notification" style="rounded=0;whiteSpace=wrap;html=1;" vertex="1" parent="1">
          <mxGeometry x="1170" y="296.5" width="80" height="40" as="geometry" />
        </mxCell>
        <mxCell id="5sCJ8YDMh3-dOOH-3sau-135" value="" style="endArrow=classic;html=1;rounded=0;exitX=0.5;exitY=1;exitDx=0;exitDy=0;entryX=0.524;entryY=-0.012;entryDx=0;entryDy=0;entryPerimeter=0;" edge="1" parent="1" target="5sCJ8YDMh3-dOOH-3sau-134">
          <mxGeometry width="50" height="50" relative="1" as="geometry">
            <mxPoint x="1260" y="231" as="sourcePoint" />
            <mxPoint x="1210" y="294" as="targetPoint" />
          </mxGeometry>
        </mxCell>
        <mxCell id="5sCJ8YDMh3-dOOH-3sau-136" value="&lt;div&gt;&lt;br&gt;&lt;/div&gt;&lt;div&gt;&lt;br&gt;&lt;/div&gt;" style="edgeLabel;html=1;align=center;verticalAlign=middle;resizable=0;points=[];" vertex="1" connectable="0" parent="5sCJ8YDMh3-dOOH-3sau-135">
          <mxGeometry x="0.2357" y="1" relative="1" as="geometry">
            <mxPoint x="-27" y="-8" as="offset" />
          </mxGeometry>
        </mxCell>
        <mxCell id="5sCJ8YDMh3-dOOH-3sau-137" value="" style="endArrow=classic;html=1;rounded=0;entryX=0.5;entryY=0;entryDx=0;entryDy=0;exitX=0.5;exitY=1;exitDx=0;exitDy=0;" edge="1" parent="1" source="5sCJ8YDMh3-dOOH-3sau-134">
          <mxGeometry width="50" height="50" relative="1" as="geometry">
            <mxPoint x="1210" y="334" as="sourcePoint" />
            <mxPoint x="1260" y="400" as="targetPoint" />
          </mxGeometry>
        </mxCell>
        <mxCell id="5sCJ8YDMh3-dOOH-3sau-138" value="&lt;div&gt;&lt;br&gt;&lt;/div&gt;&lt;div&gt;&lt;br&gt;&lt;/div&gt;" style="edgeLabel;html=1;align=center;verticalAlign=middle;resizable=0;points=[];" vertex="1" connectable="0" parent="5sCJ8YDMh3-dOOH-3sau-137">
          <mxGeometry x="0.2357" y="1" relative="1" as="geometry">
            <mxPoint x="-27" y="-8" as="offset" />
          </mxGeometry>
        </mxCell>
        <mxCell id="5sCJ8YDMh3-dOOH-3sau-139" style="edgeStyle=orthogonalEdgeStyle;rounded=0;orthogonalLoop=1;jettySize=auto;html=1;exitX=0.5;exitY=1;exitDx=0;exitDy=0;entryX=0.5;entryY=0;entryDx=0;entryDy=0;" edge="1" parent="1" target="5sCJ8YDMh3-dOOH-3sau-141">
          <mxGeometry relative="1" as="geometry">
            <mxPoint x="1259.81" y="460.5" as="targetPoint" />
            <mxPoint x="1259.81" y="401.5" as="sourcePoint" />
          </mxGeometry>
        </mxCell>
        <mxCell id="5sCJ8YDMh3-dOOH-3sau-144" style="edgeStyle=orthogonalEdgeStyle;rounded=0;orthogonalLoop=1;jettySize=auto;html=1;entryX=0.5;entryY=0;entryDx=0;entryDy=0;" edge="1" parent="1" source="5sCJ8YDMh3-dOOH-3sau-141" target="5sCJ8YDMh3-dOOH-3sau-142">
          <mxGeometry relative="1" as="geometry" />
        </mxCell>
        <mxCell id="5sCJ8YDMh3-dOOH-3sau-141" value="Check Credientals on DB" style="rounded=0;whiteSpace=wrap;html=1;" vertex="1" parent="1">
          <mxGeometry x="1220" y="456" width="80" height="40" as="geometry" />
        </mxCell>
        <mxCell id="5sCJ8YDMh3-dOOH-3sau-148" style="edgeStyle=orthogonalEdgeStyle;rounded=0;orthogonalLoop=1;jettySize=auto;html=1;exitX=1;exitY=0.5;exitDx=0;exitDy=0;" edge="1" parent="1" source="5sCJ8YDMh3-dOOH-3sau-142" target="5sCJ8YDMh3-dOOH-3sau-146">
          <mxGeometry relative="1" as="geometry" />
        </mxCell>
        <mxCell id="5sCJ8YDMh3-dOOH-3sau-164" style="edgeStyle=orthogonalEdgeStyle;rounded=0;orthogonalLoop=1;jettySize=auto;html=1;" edge="1" parent="1" source="5sCJ8YDMh3-dOOH-3sau-142">
          <mxGeometry relative="1" as="geometry">
            <mxPoint x="1260" y="580" as="targetPoint" />
          </mxGeometry>
        </mxCell>
        <mxCell id="5sCJ8YDMh3-dOOH-3sau-142" value="" style="rhombus;whiteSpace=wrap;html=1;" vertex="1" parent="1">
          <mxGeometry x="1250" y="531" width="20" height="10" as="geometry" />
        </mxCell>
        <mxCell id="5sCJ8YDMh3-dOOH-3sau-146" value="" style="ellipse;whiteSpace=wrap;html=1;aspect=fixed;" vertex="1" parent="1">
          <mxGeometry x="1380" y="516" width="40" height="40" as="geometry" />
        </mxCell>
        <mxCell id="5sCJ8YDMh3-dOOH-3sau-147" value="" style="ellipse;whiteSpace=wrap;html=1;aspect=fixed;fillColor=#080808;" vertex="1" parent="1">
          <mxGeometry x="1385" y="521" width="30" height="30" as="geometry" />
        </mxCell>
        <mxCell id="5sCJ8YDMh3-dOOH-3sau-149" value="[credentials match]" style="edgeLabel;html=1;align=center;verticalAlign=middle;resizable=0;points=[];" vertex="1" connectable="0" parent="1">
          <mxGeometry x="1320.0003448275863" y="543" as="geometry" />
        </mxCell>
        <mxCell id="5sCJ8YDMh3-dOOH-3sau-150" value="" style="endArrow=none;html=1;rounded=0;" edge="1" parent="1">
          <mxGeometry width="50" height="50" relative="1" as="geometry">
            <mxPoint x="1160" y="580" as="sourcePoint" />
            <mxPoint x="1360" y="580" as="targetPoint" />
          </mxGeometry>
        </mxCell>
        <mxCell id="5sCJ8YDMh3-dOOH-3sau-151" value="Display Error Message" style="rounded=0;whiteSpace=wrap;html=1;" vertex="1" parent="1">
          <mxGeometry x="1270" y="646" width="80" height="40" as="geometry" />
        </mxCell>
        <mxCell id="5sCJ8YDMh3-dOOH-3sau-152" value="" style="endArrow=classic;html=1;rounded=0;entryX=0.5;entryY=0;entryDx=0;entryDy=0;" edge="1" parent="1" target="5sCJ8YDMh3-dOOH-3sau-151">
          <mxGeometry width="50" height="50" relative="1" as="geometry">
            <mxPoint x="1260" y="580.5" as="sourcePoint" />
            <mxPoint x="1350" y="620" as="targetPoint" />
          </mxGeometry>
        </mxCell>
        <mxCell id="5sCJ8YDMh3-dOOH-3sau-153" value="&lt;div&gt;&lt;br&gt;&lt;/div&gt;&lt;div&gt;&lt;br&gt;&lt;/div&gt;" style="edgeLabel;html=1;align=center;verticalAlign=middle;resizable=0;points=[];" vertex="1" connectable="0" parent="5sCJ8YDMh3-dOOH-3sau-152">
          <mxGeometry x="0.2357" y="1" relative="1" as="geometry">
            <mxPoint x="-27" y="-8" as="offset" />
          </mxGeometry>
        </mxCell>
        <mxCell id="5sCJ8YDMh3-dOOH-3sau-154" value="" style="endArrow=none;html=1;rounded=0;" edge="1" parent="1">
          <mxGeometry width="50" height="50" relative="1" as="geometry">
            <mxPoint x="1160" y="750" as="sourcePoint" />
            <mxPoint x="1360" y="750" as="targetPoint" />
          </mxGeometry>
        </mxCell>
        <mxCell id="5sCJ8YDMh3-dOOH-3sau-155" value="" style="endArrow=classic;html=1;rounded=0;exitX=0.5;exitY=1;exitDx=0;exitDy=0;" edge="1" parent="1" source="5sCJ8YDMh3-dOOH-3sau-151">
          <mxGeometry width="50" height="50" relative="1" as="geometry">
            <mxPoint x="1270" y="590.5" as="sourcePoint" />
            <mxPoint x="1260" y="749.5" as="targetPoint" />
          </mxGeometry>
        </mxCell>
        <mxCell id="5sCJ8YDMh3-dOOH-3sau-156" value="&lt;div&gt;&lt;br&gt;&lt;/div&gt;&lt;div&gt;&lt;br&gt;&lt;/div&gt;" style="edgeLabel;html=1;align=center;verticalAlign=middle;resizable=0;points=[];" vertex="1" connectable="0" parent="5sCJ8YDMh3-dOOH-3sau-155">
          <mxGeometry x="0.2357" y="1" relative="1" as="geometry">
            <mxPoint x="-27" y="-8" as="offset" />
          </mxGeometry>
        </mxCell>
        <mxCell id="5sCJ8YDMh3-dOOH-3sau-158" value="" style="endArrow=classic;html=1;rounded=0;exitX=0.5;exitY=1;exitDx=0;exitDy=0;entryX=0.524;entryY=-0.012;entryDx=0;entryDy=0;entryPerimeter=0;" edge="1" parent="1">
          <mxGeometry width="50" height="50" relative="1" as="geometry">
            <mxPoint x="1260" y="580.5" as="sourcePoint" />
            <mxPoint x="1211.9199999999998" y="645.52" as="targetPoint" />
          </mxGeometry>
        </mxCell>
        <mxCell id="5sCJ8YDMh3-dOOH-3sau-159" value="&lt;div&gt;&lt;br&gt;&lt;/div&gt;&lt;div&gt;&lt;br&gt;&lt;/div&gt;" style="edgeLabel;html=1;align=center;verticalAlign=middle;resizable=0;points=[];" vertex="1" connectable="0" parent="5sCJ8YDMh3-dOOH-3sau-158">
          <mxGeometry x="0.2357" y="1" relative="1" as="geometry">
            <mxPoint x="-27" y="-8" as="offset" />
          </mxGeometry>
        </mxCell>
        <mxCell id="5sCJ8YDMh3-dOOH-3sau-160" value="" style="endArrow=classic;html=1;rounded=0;entryX=0.5;entryY=0;entryDx=0;entryDy=0;exitX=0.5;exitY=1;exitDx=0;exitDy=0;" edge="1" parent="1">
          <mxGeometry width="50" height="50" relative="1" as="geometry">
            <mxPoint x="1210" y="686" as="sourcePoint" />
            <mxPoint x="1260" y="749.5" as="targetPoint" />
          </mxGeometry>
        </mxCell>
        <mxCell id="5sCJ8YDMh3-dOOH-3sau-161" value="&lt;div&gt;&lt;br&gt;&lt;/div&gt;&lt;div&gt;&lt;br&gt;&lt;/div&gt;" style="edgeLabel;html=1;align=center;verticalAlign=middle;resizable=0;points=[];" vertex="1" connectable="0" parent="5sCJ8YDMh3-dOOH-3sau-160">
          <mxGeometry x="0.2357" y="1" relative="1" as="geometry">
            <mxPoint x="-27" y="-8" as="offset" />
          </mxGeometry>
        </mxCell>
        <mxCell id="5sCJ8YDMh3-dOOH-3sau-162" value="" style="shape=collate;whiteSpace=wrap;html=1;" vertex="1" parent="1">
          <mxGeometry x="1200" y="652" width="20" height="28" as="geometry" />
        </mxCell>
        <mxCell id="5sCJ8YDMh3-dOOH-3sau-163" value="30 seconds" style="edgeLabel;html=1;align=center;verticalAlign=middle;resizable=0;points=[];" vertex="1" connectable="0" parent="1">
          <mxGeometry x="1170.0003448275863" y="666" as="geometry" />
        </mxCell>
        <mxCell id="5sCJ8YDMh3-dOOH-3sau-165" style="edgeStyle=orthogonalEdgeStyle;rounded=0;orthogonalLoop=1;jettySize=auto;html=1;entryX=0;entryY=0.5;entryDx=0;entryDy=0;" edge="1" parent="1" target="5sCJ8YDMh3-dOOH-3sau-103">
          <mxGeometry relative="1" as="geometry">
            <mxPoint x="1259.93" y="789" as="targetPoint" />
            <mxPoint x="1259.93" y="750" as="sourcePoint" />
            <Array as="points">
              <mxPoint x="1260" y="770" />
              <mxPoint x="1120" y="770" />
              <mxPoint x="1120" y="166" />
            </Array>
          </mxGeometry>
        </mxCell>
      </root>
    </mxGraphModel>
  </diagram>
</mxfile>
